<svg width="22" height="22" viewBox="0 0 22 22" fill="none" xmlns="http://www.w3.org/2000/svg">
<path d="M16.044 0H5.954C4.37538 0.00211716 2.86203 0.630229 1.74587 1.74658C0.62971 2.86293 0.00185205 4.37638 0 5.955L0 16.045C0.00185205 17.6236 0.62971 19.1371 1.74587 20.2534C2.86203 21.3698 4.37538 21.9979 5.954 22H16.044C17.623 21.9984 19.1368 21.3705 20.2534 20.2541C21.37 19.1377 21.9981 17.624 22 16.045V5.955C21.9981 4.37603 21.37 2.86228 20.2534 1.74587C19.1368 0.629466 17.623 0.00158795 16.044 0V0ZM11 17.016C9.81011 17.0162 8.64687 16.6635 7.65742 16.0026C6.66796 15.3417 5.89672 14.4022 5.44123 13.3029C4.98574 12.2037 4.86646 10.994 5.09847 9.82695C5.33049 8.65989 5.90338 7.58785 6.74469 6.7464C7.586 5.90495 8.65795 5.33188 9.82497 5.09967C10.992 4.86746 12.2017 4.98654 13.301 5.44184C14.4003 5.89715 15.34 6.66824 16.0011 7.65759C16.6621 8.64693 17.015 9.81011 17.015 11C17.0134 12.5949 16.3792 14.124 15.2516 15.2518C14.1239 16.3797 12.5949 17.0141 11 17.016ZM17.159 6.4C16.8073 6.4 16.4636 6.29572 16.1712 6.10035C15.8788 5.90498 15.6509 5.6273 15.5163 5.30241C15.3818 4.97752 15.3466 4.62003 15.4152 4.27513C15.4838 3.93023 15.6531 3.61342 15.9018 3.36476C16.1504 3.11611 16.4672 2.94677 16.8121 2.87816C17.157 2.80956 17.5145 2.84477 17.8394 2.97934C18.1643 3.11391 18.442 3.34181 18.6374 3.6342C18.8327 3.92659 18.937 4.27035 18.937 4.622C18.9367 5.09347 18.7493 5.54556 18.4159 5.87894C18.0826 6.21233 17.6305 6.39973 17.159 6.4Z" fill="white"/>
<path d="M10.999 6.27344C10.0643 6.27344 9.15058 6.5506 8.37339 7.0699C7.5962 7.5892 6.99046 8.32731 6.63276 9.19087C6.27506 10.0544 6.18147 11.0047 6.36382 11.9214C6.54618 12.8382 6.99629 13.6803 7.65723 14.3412C8.31818 15.0022 9.16026 15.4523 10.077 15.6346C10.9938 15.817 11.944 15.7234 12.8076 15.3657C13.6711 15.008 14.4092 14.4022 14.9285 13.6251C15.4478 12.8479 15.725 11.9341 15.725 10.9994C15.7237 9.74643 15.2253 8.54511 14.3393 7.6591C13.4533 6.77309 12.252 6.27476 10.999 6.27344Z" fill="white"/>
<path d="M17.159 4.13672C17.0625 4.13672 16.9682 4.16533 16.8879 4.21896C16.8077 4.27258 16.7451 4.3488 16.7082 4.43797C16.6712 4.52714 16.6616 4.62525 16.6804 4.71992C16.6992 4.81458 16.7457 4.90154 16.8139 4.96979C16.8822 5.03804 16.9692 5.08451 17.0638 5.10334C17.1585 5.12217 17.2566 5.1125 17.3458 5.07557C17.4349 5.03863 17.5111 4.97609 17.5648 4.89584C17.6184 4.81558 17.647 4.72123 17.647 4.62472C17.647 4.49529 17.5956 4.37117 17.5041 4.27965C17.4126 4.18813 17.2885 4.13672 17.159 4.13672Z" fill="white"/>
</svg>
