<svg width="25" height="21" viewBox="0 0 25 21" fill="none" xmlns="http://www.w3.org/2000/svg">
<path d="M23.8628 10.77C23.7975 10.6571 23.7102 10.5585 23.6063 10.4798C23.5023 10.4011 23.3837 10.344 23.2573 10.3117C23.131 10.2795 22.9995 10.2727 22.8705 10.2919C22.7416 10.3111 22.6178 10.3559 22.5063 10.4235L19.217 12.328L18.3801 12.8185V17.3767L19.1596 17.838C19.1888 17.838 19.1888 17.8672 19.217 17.8672L22.4488 19.7425C22.607 19.8592 22.7994 19.9201 22.9958 19.9157C23.125 19.9168 23.253 19.8922 23.3725 19.8433C23.492 19.7943 23.6006 19.7221 23.6919 19.6308C23.7832 19.5395 23.8555 19.4309 23.9044 19.3114C23.9533 19.1919 23.9779 19.0639 23.9768 18.9348V15.0721L24.006 11.2632C24.0174 11.0871 23.9667 10.9126 23.8628 10.77Z" fill="white"/>
<path d="M4.64945 9.2989C5.5693 9.2989 6.46848 9.02605 7.23321 8.51488C7.99795 8.00371 8.59387 7.27719 8.94559 6.42724C9.29731 5.5773 9.38901 4.64212 9.20909 3.74004C9.02918 2.83796 8.58572 2.00952 7.93485 1.35954C7.28397 0.709555 6.45492 0.267242 5.5526 0.0885633C4.65027 -0.0901154 3.71522 0.00286997 2.86576 0.355755C2.0163 0.708639 1.29059 1.30557 0.780474 2.071C0.270354 2.83644 -0.00125815 3.73599 4.38154e-06 4.65583C-0.000116228 5.26614 0.12011 5.87048 0.353802 6.43428C0.587494 6.99807 0.930067 7.51025 1.36192 7.94151C1.79376 8.37276 2.30641 8.71463 2.87053 8.94755C3.43464 9.18047 4.03915 9.29986 4.64945 9.2989ZM4.64945 2.74865C5.02585 2.74937 5.39358 2.86161 5.70623 3.07119C6.01888 3.28077 6.26241 3.57829 6.40607 3.92619C6.54974 4.27409 6.58709 4.65675 6.51342 5.02587C6.43974 5.39498 6.25835 5.73398 5.99213 6.00007C5.72592 6.26615 5.38683 6.44739 5.01768 6.52089C4.64853 6.59438 4.26589 6.55685 3.91806 6.41302C3.57023 6.26919 3.27282 6.02551 3.06339 5.71276C2.85396 5.40002 2.7419 5.03223 2.74136 4.65583C2.736 4.40388 2.78171 4.15344 2.87573 3.91962C2.96975 3.6858 3.11013 3.47344 3.28842 3.29532C3.46671 3.11721 3.67921 2.97703 3.91312 2.88323C4.14702 2.78944 4.3975 2.74397 4.64945 2.74956V2.74865Z" fill="white"/>
<path d="M16.419 9.55762C15.6504 9.9506 14.8006 10.1582 13.9374 10.1639C12.8706 10.169 11.8262 9.85781 10.9363 9.26953H7.647C6.75703 9.85781 5.71263 10.169 4.64582 10.1639C3.78099 10.1722 2.92785 9.96381 2.16429 9.55762C1.8248 9.75425 1.54247 10.036 1.34517 10.3751C1.14788 10.7142 1.04246 11.0989 1.03931 11.4912V18.532C1.04147 19.1512 1.28843 19.7445 1.72633 20.1824C2.16423 20.6203 2.75752 20.8673 3.3768 20.8695H15.2356C15.8549 20.8673 16.4482 20.6203 16.8861 20.1824C17.324 19.7445 17.571 19.1512 17.5731 18.532V11.4912C17.5583 11.098 17.4448 10.7148 17.2431 10.3769C17.0415 10.039 16.758 9.75731 16.419 9.55762Z" fill="white"/>
<path d="M13.9373 9.2989C14.8569 9.2989 15.7558 9.02622 16.5204 8.51533C17.285 8.00444 17.8809 7.27829 18.2328 6.42872C18.5847 5.57914 18.6768 4.64429 18.4974 3.74239C18.318 2.84048 17.8752 2.01203 17.2249 1.36179C16.5747 0.711556 15.7463 0.26874 14.8444 0.0893397C13.9425 -0.0900603 13.0076 0.00201519 12.158 0.353921C11.3085 0.705827 10.5823 1.30176 10.0714 2.06636C9.56053 2.83095 9.28785 3.72988 9.28785 4.64945C9.28689 5.2603 9.40649 5.86532 9.6398 6.42986C9.87312 6.99439 10.2156 7.50732 10.6475 7.93925C11.0794 8.37118 11.5924 8.71362 12.1569 8.94694C12.7214 9.18026 13.3264 9.29986 13.9373 9.2989ZM13.9373 2.74865C14.314 2.74865 14.6822 2.86034 14.9954 3.06961C15.3085 3.27887 15.5526 3.5763 15.6968 3.9243C15.8409 4.27229 15.8786 4.65521 15.8052 5.02464C15.7317 5.39407 15.5503 5.73341 15.2839 5.99975C15.0176 6.26609 14.6783 6.44747 14.3088 6.52096C13.9394 6.59444 13.5565 6.55673 13.2085 6.41258C12.8605 6.26844 12.5631 6.02434 12.3538 5.71115C12.1445 5.39797 12.0328 5.02976 12.0328 4.6531C12.0327 4.40301 12.0819 4.15535 12.1776 3.92429C12.2733 3.69323 12.4136 3.4833 12.5904 3.3065C12.7673 3.12971 12.9773 2.98952 13.2084 2.89395C13.4395 2.79839 13.6872 2.74932 13.9373 2.74956V2.74865Z" fill="white"/>
</svg>
