<svg width="24" height="21" viewBox="0 0 24 21" fill="none" xmlns="http://www.w3.org/2000/svg">
<path d="M9.59428 1.58767L5.20738 4.86964H1.20156C0.882554 4.8706 0.57694 4.99801 0.351708 5.22392C0.126475 5.44984 -1.46026e-06 5.75584 0 6.07485L0 14.4475C0.000961876 14.7659 0.127864 15.0709 0.352992 15.2961C0.578121 15.5212 0.883185 15.6481 1.20156 15.6491H5.2083L9.59519 18.931C9.77318 19.0672 9.98583 19.1506 10.2089 19.1717C10.432 19.1929 10.6565 19.1509 10.8569 19.0507C11.0574 18.9504 11.2256 18.7959 11.3424 18.6047C11.4593 18.4135 11.5201 18.1933 11.5179 17.9692V2.55221C11.5197 2.32817 11.4587 2.10812 11.3417 1.917C11.2248 1.72588 11.0567 1.57135 10.8564 1.47092C10.6562 1.3705 10.4318 1.32821 10.2087 1.34885C9.98557 1.36948 9.77273 1.45222 9.59428 1.58767Z" fill="white"/>
<path d="M15.4871 3.5488C15.357 3.41837 15.2024 3.31484 15.0323 3.24414C14.8621 3.17343 14.6797 3.13693 14.4955 3.13672C14.3112 3.13651 14.1287 3.17259 13.9584 3.2429C13.7881 3.31322 13.6333 3.41639 13.5029 3.54653C13.3725 3.67666 13.2689 3.83121 13.1982 4.00136C13.1275 4.17151 13.091 4.35391 13.0908 4.53816C13.0906 4.72242 13.1267 4.90491 13.197 5.07521C13.2673 5.24552 13.3705 5.40031 13.5006 5.53075C14.7513 6.78213 15.4538 8.47892 15.4538 10.2481C15.4538 12.0173 14.7513 13.7141 13.5006 14.9655C13.2406 15.2299 13.0948 15.586 13.0948 15.9569C13.0948 16.3278 13.2406 16.6839 13.5006 16.9483C13.6302 17.0771 13.784 17.1787 13.9532 17.2475C14.1224 17.3162 14.3036 17.3507 14.4862 17.3488C14.6688 17.347 14.8493 17.3088 15.017 17.2366C15.1848 17.1644 15.3365 17.0596 15.4634 16.9283C16.3479 16.0538 17.0505 15.0129 17.5308 13.8656C18.0111 12.7183 18.2595 11.4873 18.2617 10.2435C18.2639 8.9997 18.0198 7.76779 17.5436 6.61878C17.0674 5.46977 16.3685 4.42639 15.4871 3.5488Z" fill="white"/>
<path d="M17.0464 0.404686C16.7866 0.66926 16.641 1.02528 16.641 1.39611C16.641 1.76695 16.7866 2.12297 17.0464 2.38754C18.0815 3.42061 18.9026 4.64766 19.4629 5.99847C20.0232 7.34927 20.3116 8.79731 20.3116 10.2597C20.3116 11.7221 20.0232 13.1701 19.4629 14.5209C18.9026 15.8717 18.0815 17.0988 17.0464 18.1319C16.8523 18.3288 16.7203 18.5784 16.6668 18.8497C16.6133 19.121 16.6406 19.402 16.7454 19.658C16.8501 19.9139 17.0277 20.1334 17.2561 20.2893C17.4845 20.4452 17.7536 20.5306 18.0301 20.535C18.3973 20.536 18.7501 20.3922 19.0119 20.1348C20.3073 18.8412 21.3349 17.305 22.036 15.614C22.7372 13.923 23.098 12.1104 23.098 10.2798C23.098 8.44915 22.7372 6.6365 22.036 4.94549C21.3349 3.25448 20.3073 1.71827 19.0119 0.424743C18.8854 0.292211 18.7337 0.186355 18.5656 0.113418C18.3976 0.0404808 18.2166 0.00194079 18.0334 7.14312e-05C17.8502 -0.00179793 17.6685 0.0330412 17.499 0.102533C17.3295 0.172026 17.1756 0.274763 17.0464 0.404686Z" fill="white"/>
</svg>
